<?xml version="1.0" encoding="UTF-8" ?>
<!DOCTYPE svg PUBLIC "-//W3C//DTD SVG 1.1//EN" "http://www.w3.org/Graphics/SVG/1.1/DTD/svg11.dtd">
<svg width="182pt" height="125pt" viewBox="0 0 182 125" version="1.1" xmlns="http://www.w3.org/2000/svg">
<g id="#ffffffff">
<path fill="#ffffff" opacity="0.00" d=" M 0.00 0.00 L 182.00 0.00 L 182.00 125.00 L 0.00 125.00 L 0.00 0.00 M 2.03 41.93 L 2.00 43.25 C 60.53 43.23 119.07 43.32 177.61 43.21 L 176.96 42.03 C 118.66 41.78 60.34 42.00 2.03 41.93 M 76.85 58.04 C 76.78 63.33 76.84 68.62 76.81 73.92 L 78.21 73.97 C 78.20 71.65 78.20 69.33 78.20 67.01 C 80.19 66.99 82.17 66.95 84.16 66.92 C 84.16 66.46 84.16 65.54 84.16 65.08 C 82.17 65.05 80.19 65.01 78.20 64.99 C 78.20 63.32 78.21 61.66 78.20 59.99 C 80.28 59.99 82.36 59.98 84.44 59.98 C 84.43 59.49 84.43 58.51 84.43 58.01 C 81.90 58.01 79.38 58.01 76.85 58.04 M 88.13 58.00 C 88.11 63.33 88.11 68.66 88.13 73.99 C 88.51 74.00 89.26 74.00 89.64 74.00 C 89.64 68.67 89.64 63.33 89.64 58.00 C 89.26 58.00 88.51 58.00 88.13 58.00 M 94.50 58.10 C 94.49 63.39 94.50 68.69 94.49 73.99 C 94.83 73.99 95.52 74.00 95.86 74.00 C 95.87 71.68 95.87 69.36 95.87 67.04 C 97.86 67.01 99.84 66.97 101.83 66.94 C 101.84 66.48 101.87 65.54 101.88 65.07 C 99.87 65.04 97.87 64.98 95.87 64.96 C 95.87 63.32 95.87 61.68 95.87 60.05 C 97.94 60.01 100.02 59.96 102.10 59.90 C 102.11 59.45 102.11 58.54 102.11 58.09 C 99.57 57.99 97.03 57.98 94.50 58.10 M 110.32 58.29 C 103.38 60.28 103.43 72.06 110.42 74.05 C 111.47 74.02 112.51 73.93 113.55 73.78 C 120.56 71.71 120.44 60.02 113.45 57.93 C 112.40 57.99 111.36 58.11 110.32 58.29 M 168.04 60.30 C 168.02 61.16 167.96 62.86 167.93 63.71 C 156.62 63.78 145.31 63.72 134.00 63.75 C 134.01 64.33 134.02 65.49 134.02 66.07 C 145.33 66.09 156.63 66.05 167.94 66.09 C 167.96 66.89 168.01 68.50 168.03 69.30 C 171.01 67.77 174.13 66.50 176.91 64.61 C 173.91 63.26 170.97 61.79 168.04 60.30 M 2.01 63.74 C 2.01 64.33 2.02 65.49 2.02 66.07 C 21.34 66.08 40.66 66.07 59.98 66.07 C 59.98 65.49 59.99 64.33 60.00 63.75 C 40.67 63.74 21.34 63.75 2.01 63.74 M 2.02 85.92 C 2.02 86.44 2.00 87.47 1.99 87.99 C 60.42 87.98 118.84 87.99 177.26 87.98 C 177.26 87.47 177.25 86.44 177.25 85.92 C 118.84 85.93 60.43 85.92 2.02 85.92 Z" />
<path fill="#ffffff" opacity="0.00" d=" M 107.06 62.99 C 108.12 58.64 115.86 58.56 116.84 63.02 C 117.35 65.36 117.36 67.96 116.37 70.19 C 114.89 72.52 111.98 72.16 109.61 72.23 C 106.46 70.29 106.31 66.24 107.06 62.99 Z" />
</g>
<g id="#010102ff">
<path fill="#010102" opacity="1.00" d=" M 2.03 41.93 C 60.34 42.00 118.66 41.78 176.96 42.03 L 177.61 43.21 C 119.07 43.32 60.53 43.23 2.00 43.25 L 2.03 41.93 Z" />
<path fill="#010102" opacity="1.00" d=" M 76.85 58.04 C 79.38 58.01 81.90 58.01 84.43 58.01 C 84.43 58.51 84.43 59.49 84.44 59.98 C 82.36 59.98 80.28 59.99 78.20 59.99 C 78.21 61.66 78.20 63.32 78.20 64.99 C 80.19 65.01 82.17 65.05 84.16 65.08 C 84.16 65.54 84.16 66.46 84.16 66.92 C 82.17 66.95 80.19 66.99 78.20 67.01 C 78.20 69.33 78.20 71.65 78.21 73.97 L 76.81 73.92 C 76.84 68.62 76.78 63.33 76.85 58.04 Z" />
<path fill="#010102" opacity="1.00" d=" M 88.13 58.00 C 88.51 58.00 89.26 58.00 89.64 58.00 C 89.64 63.33 89.64 68.67 89.64 74.00 C 89.26 74.00 88.51 74.00 88.13 73.99 C 88.11 68.66 88.11 63.33 88.13 58.00 Z" />
<path fill="#010102" opacity="1.00" d=" M 94.50 58.10 C 97.03 57.98 99.57 57.99 102.11 58.09 C 102.11 58.54 102.11 59.45 102.10 59.90 C 100.02 59.96 97.94 60.01 95.87 60.05 C 95.87 61.68 95.87 63.32 95.87 64.96 C 97.87 64.98 99.87 65.04 101.88 65.07 C 101.87 65.54 101.84 66.48 101.83 66.94 C 99.84 66.97 97.86 67.01 95.87 67.04 C 95.87 69.36 95.87 71.68 95.86 74.00 C 95.52 74.00 94.83 73.99 94.49 73.99 C 94.50 68.69 94.49 63.39 94.50 58.10 Z" />
<path fill="#010102" opacity="1.00" d=" M 110.32 58.29 C 111.36 58.11 112.40 57.99 113.45 57.93 C 120.44 60.02 120.56 71.71 113.55 73.78 C 112.51 73.93 111.47 74.02 110.42 74.05 C 103.43 72.06 103.38 60.28 110.32 58.29 M 107.06 62.99 C 106.31 66.24 106.46 70.29 109.61 72.23 C 111.98 72.16 114.89 72.52 116.37 70.19 C 117.36 67.96 117.35 65.36 116.84 63.02 C 115.86 58.56 108.12 58.64 107.06 62.99 Z" />
<path fill="#010102" opacity="1.00" d=" M 168.04 60.30 C 170.97 61.79 173.91 63.26 176.91 64.61 C 174.13 66.50 171.01 67.77 168.03 69.30 C 168.01 68.50 167.96 66.89 167.94 66.09 C 156.63 66.05 145.33 66.09 134.02 66.07 C 134.02 65.49 134.01 64.33 134.00 63.75 C 145.31 63.72 156.62 63.78 167.93 63.71 C 167.96 62.86 168.02 61.16 168.04 60.30 Z" />
<path fill="#010102" opacity="1.00" d=" M 2.01 63.74 C 21.34 63.75 40.67 63.74 60.00 63.75 C 59.99 64.33 59.98 65.49 59.98 66.07 C 40.66 66.07 21.34 66.08 2.02 66.07 C 2.02 65.49 2.01 64.33 2.01 63.74 Z" />
<path fill="#010102" opacity="1.00" d=" M 2.02 85.92 C 60.43 85.92 118.84 85.93 177.25 85.92 C 177.25 86.44 177.26 87.47 177.26 87.98 C 118.84 87.99 60.42 87.98 1.99 87.99 C 2.00 87.47 2.02 86.44 2.02 85.92 Z" />
</g>
</svg>
