<?xml version="1.0" encoding="UTF-8" ?>
<!DOCTYPE svg PUBLIC "-//W3C//DTD SVG 1.1//EN" "http://www.w3.org/Graphics/SVG/1.1/DTD/svg11.dtd">
<svg width="182pt" height="125pt" viewBox="0 0 182 125" version="1.1" xmlns="http://www.w3.org/2000/svg">
<g id="#ffffffff">
<path fill="#ffffff" opacity="0.00" d=" M 0.00 0.00 L 182.00 0.00 L 182.00 125.00 L 0.00 125.00 L 0.00 0.00 M 21.01 42.99 C 21.02 57.69 20.89 72.40 21.07 87.10 C 21.29 87.34 21.72 87.83 21.94 88.07 C 68.42 88.32 114.92 88.02 161.40 88.21 C 161.83 86.84 162.09 85.43 162.02 83.99 C 161.94 70.33 162.07 56.66 161.97 43.01 C 162.07 41.41 160.27 40.77 158.97 40.98 C 113.96 40.99 68.96 41.00 23.95 40.97 C 22.65 40.70 20.81 41.40 21.01 42.99 Z" />
<path fill="#ffffff" opacity="0.00" d=" M 23.89 43.23 C 68.97 43.24 114.05 43.24 159.13 43.23 C 159.06 57.46 159.12 71.70 159.11 85.93 C 114.04 85.93 68.97 85.93 23.89 85.93 C 23.90 71.70 23.90 57.46 23.89 43.23 M 42.03 56.78 C 42.01 58.11 40.14 59.50 41.21 60.74 C 41.65 60.47 42.53 59.93 42.97 59.66 C 44.07 62.02 44.95 64.47 45.83 66.92 C 43.92 66.97 42.01 67.00 40.10 67.01 C 40.17 65.66 41.98 62.89 40.28 62.20 C 38.18 65.43 37.95 69.67 36.31 73.19 C 38.43 72.79 38.33 70.21 39.69 68.96 C 41.90 68.82 44.11 68.89 46.32 68.88 C 47.16 70.53 47.43 72.86 49.57 73.41 C 48.09 68.54 46.15 63.84 44.59 59.00 C 44.36 57.65 43.29 57.02 42.03 56.78 M 58.53 57.12 C 58.54 62.38 58.54 67.63 58.54 72.88 C 61.05 72.76 63.82 73.44 66.06 71.97 C 68.65 70.89 68.89 66.86 66.59 65.34 C 64.78 63.45 62.09 64.04 59.76 63.86 C 59.77 62.27 59.77 60.68 59.75 59.09 C 61.39 59.17 63.19 58.63 64.71 59.45 C 65.53 60.86 66.10 62.41 67.03 63.77 C 66.99 62.78 66.92 60.80 66.88 59.81 C 65.63 56.43 61.39 57.08 58.53 57.12 M 81.37 57.46 C 74.86 59.47 74.73 70.79 81.39 72.73 C 84.03 73.53 86.89 71.78 87.94 69.33 C 86.37 70.10 84.87 71.44 82.99 71.15 C 77.63 71.47 76.92 63.65 79.53 60.40 C 81.61 57.64 85.29 59.08 87.76 60.46 C 86.71 58.15 83.84 56.28 81.37 57.46 M 100.49 57.20 L 99.06 59.47 C 99.67 59.39 100.90 59.24 101.52 59.16 C 102.01 61.10 102.62 63.01 103.12 64.95 C 103.52 64.17 103.93 63.39 104.34 62.61 C 103.03 60.95 103.38 56.50 100.49 57.20 M 116.85 57.09 C 116.82 62.35 116.83 67.60 116.85 72.86 C 118.70 72.88 120.54 72.91 122.39 72.96 C 123.99 71.99 126.39 71.23 126.46 69.00 C 126.95 67.04 125.15 65.91 124.03 64.65 C 124.96 62.97 126.31 60.88 124.95 59.02 C 123.09 56.39 119.59 57.21 116.85 57.09 M 139.55 57.54 C 133.28 59.60 133.03 70.42 139.38 72.55 C 142.02 73.81 144.73 71.82 146.34 69.82 C 144.13 70.55 141.90 71.16 139.57 71.35 C 135.41 68.50 135.46 61.67 139.54 58.77 C 140.45 58.83 142.27 58.93 143.18 58.98 C 143.90 59.37 145.33 60.14 146.05 60.53 C 145.19 58.08 142.00 56.20 139.55 57.54 M 99.09 59.62 C 98.09 63.99 96.42 68.18 94.58 72.27 C 94.65 72.62 94.80 73.31 94.87 73.66 C 96.28 72.35 97.02 70.61 97.78 68.89 C 100.07 68.96 102.42 68.65 104.68 69.15 C 105.61 70.70 105.79 72.91 107.86 73.44 C 106.96 70.26 105.79 67.17 104.83 64.01 C 104.37 65.01 103.91 66.01 103.50 67.03 C 101.72 67.01 99.94 66.96 98.17 66.89 C 98.99 64.97 99.54 62.95 100.45 61.07 C 100.00 60.58 99.55 60.09 99.09 59.62 Z" />
<path fill="#ffffff" opacity="0.00" d=" M 118.22 58.94 C 120.03 59.09 121.86 59.04 123.66 59.38 C 123.43 60.81 124.62 63.34 122.60 63.75 C 121.17 64.07 119.70 63.99 118.25 64.06 C 118.24 62.35 118.23 60.65 118.22 58.94 Z" />
<path fill="#ffffff" opacity="0.00" d=" M 59.75 66.09 C 62.05 66.22 65.47 65.12 66.67 67.83 C 67.16 71.83 62.25 70.99 59.75 70.91 C 59.77 69.30 59.77 67.70 59.75 66.09 Z" />
<path fill="#ffffff" opacity="0.00" d=" M 118.24 65.97 C 120.58 66.10 125.42 65.20 124.85 69.00 C 124.26 71.96 120.38 70.71 118.24 71.02 C 118.24 69.34 118.24 67.65 118.24 65.97 Z" />
</g>
<g id="#060608ff">
<path fill="#060608" opacity="1.00" d=" M 21.01 42.99 C 20.81 41.40 22.65 40.70 23.95 40.97 C 68.96 41.00 113.96 40.99 158.97 40.98 C 160.27 40.77 162.07 41.41 161.97 43.01 C 162.07 56.66 161.94 70.33 162.02 83.99 C 162.09 85.43 161.83 86.84 161.40 88.21 C 114.92 88.02 68.42 88.32 21.94 88.07 C 21.72 87.83 21.29 87.34 21.07 87.10 C 20.89 72.40 21.02 57.69 21.01 42.99 M 23.89 43.23 C 23.90 57.46 23.90 71.70 23.89 85.93 C 68.97 85.93 114.04 85.93 159.11 85.93 C 159.12 71.70 159.06 57.46 159.13 43.23 C 114.05 43.24 68.97 43.24 23.89 43.23 Z" />
<path fill="#060608" opacity="1.00" d=" M 42.03 56.78 C 43.29 57.02 44.36 57.65 44.59 59.00 C 46.15 63.84 48.09 68.54 49.57 73.41 C 47.43 72.86 47.16 70.53 46.32 68.88 C 44.11 68.89 41.90 68.82 39.69 68.96 C 38.33 70.21 38.43 72.79 36.31 73.19 C 37.95 69.67 38.18 65.43 40.28 62.20 C 41.98 62.89 40.17 65.66 40.10 67.01 C 42.01 67.00 43.92 66.97 45.83 66.92 C 44.95 64.47 44.07 62.02 42.97 59.66 C 42.53 59.93 41.65 60.47 41.21 60.74 C 40.14 59.50 42.01 58.11 42.03 56.78 Z" />
<path fill="#060608" opacity="1.00" d=" M 58.53 57.12 C 61.39 57.08 65.63 56.43 66.88 59.81 C 66.92 60.80 66.99 62.78 67.03 63.77 C 66.10 62.41 65.53 60.86 64.71 59.45 C 63.19 58.63 61.39 59.17 59.75 59.09 C 59.77 60.68 59.77 62.27 59.76 63.86 C 62.09 64.04 64.78 63.45 66.59 65.34 C 68.89 66.86 68.65 70.89 66.06 71.97 C 63.82 73.44 61.05 72.76 58.54 72.88 C 58.54 67.63 58.54 62.38 58.53 57.12 M 59.75 66.09 C 59.77 67.70 59.77 69.30 59.75 70.91 C 62.25 70.99 67.16 71.83 66.67 67.83 C 65.47 65.12 62.05 66.22 59.75 66.09 Z" />
<path fill="#060608" opacity="1.00" d=" M 81.37 57.46 C 83.84 56.28 86.71 58.15 87.76 60.46 C 85.29 59.08 81.61 57.64 79.53 60.40 C 76.92 63.65 77.63 71.47 82.99 71.15 C 84.87 71.44 86.37 70.10 87.94 69.33 C 86.89 71.78 84.03 73.53 81.39 72.73 C 74.73 70.79 74.86 59.47 81.37 57.46 Z" />
<path fill="#060608" opacity="1.00" d=" M 100.49 57.20 C 103.38 56.50 103.03 60.95 104.34 62.61 C 103.93 63.39 103.52 64.17 103.12 64.95 C 102.62 63.01 102.01 61.10 101.52 59.16 C 100.90 59.24 99.67 59.39 99.06 59.47 L 100.49 57.20 Z" />
<path fill="#060608" opacity="1.00" d=" M 116.85 57.09 C 119.59 57.21 123.09 56.39 124.95 59.02 C 126.31 60.88 124.96 62.97 124.03 64.65 C 125.15 65.91 126.95 67.04 126.46 69.00 C 126.39 71.23 123.99 71.99 122.39 72.96 C 120.54 72.91 118.70 72.88 116.85 72.86 C 116.83 67.60 116.82 62.35 116.85 57.09 M 118.22 58.94 C 118.23 60.65 118.24 62.35 118.25 64.06 C 119.70 63.99 121.17 64.07 122.60 63.75 C 124.62 63.34 123.43 60.81 123.66 59.38 C 121.86 59.04 120.03 59.09 118.22 58.94 M 118.24 65.97 C 118.24 67.65 118.24 69.34 118.24 71.02 C 120.38 70.71 124.26 71.96 124.85 69.00 C 125.42 65.20 120.58 66.10 118.24 65.97 Z" />
<path fill="#060608" opacity="1.00" d=" M 139.55 57.54 C 142.00 56.20 145.19 58.08 146.05 60.53 C 145.33 60.14 143.90 59.37 143.18 58.98 C 142.27 58.93 140.45 58.83 139.54 58.77 C 135.46 61.67 135.41 68.50 139.57 71.35 C 141.90 71.16 144.13 70.55 146.34 69.82 C 144.73 71.82 142.02 73.81 139.38 72.55 C 133.03 70.42 133.28 59.60 139.55 57.54 Z" />
<path fill="#060608" opacity="1.00" d=" M 99.09 59.62 C 99.55 60.09 100.00 60.58 100.45 61.07 C 99.54 62.95 98.99 64.97 98.17 66.89 C 99.94 66.96 101.72 67.01 103.50 67.03 C 103.91 66.01 104.37 65.01 104.83 64.01 C 105.79 67.17 106.96 70.26 107.86 73.44 C 105.79 72.91 105.61 70.70 104.68 69.15 C 102.42 68.65 100.07 68.96 97.78 68.89 C 97.02 70.61 96.28 72.35 94.87 73.66 C 94.80 73.31 94.65 72.62 94.58 72.27 C 96.42 68.18 98.09 63.99 99.09 59.62 Z" />
</g>
</svg>
