<?xml version="1.0" encoding="UTF-8" ?>
<!DOCTYPE svg PUBLIC "-//W3C//DTD SVG 1.1//EN" "http://www.w3.org/Graphics/SVG/1.1/DTD/svg11.dtd">
<svg width="182pt" height="125pt" viewBox="0 0 182 125" version="1.1" xmlns="http://www.w3.org/2000/svg">
<g id="#ffffffff">
<path fill="#ffffff" opacity="0.00" d=" M 0.00 0.00 L 182.00 0.00 L 182.00 125.00 L 0.00 125.00 L 0.00 0.00 M 88.23 13.05 C 67.78 44.29 47.15 75.43 26.57 106.59 C 25.89 107.72 25.29 108.89 24.69 110.06 C 25.01 110.53 25.66 111.45 25.99 111.91 C 68.00 111.89 110.01 111.93 152.01 111.89 C 153.14 111.78 155.72 111.19 154.84 109.61 C 142.78 91.50 130.88 73.29 118.88 55.14 C 109.45 40.68 99.64 26.45 90.54 11.79 C 89.62 11.98 88.85 12.40 88.23 13.05 Z" />
<path fill="#ffffff" opacity="0.00" d=" M 39.56 91.56 C 56.15 66.02 72.96 40.63 89.53 15.07 C 91.75 17.69 93.44 20.69 95.38 23.51 C 113.89 52.05 132.73 80.38 151.17 108.96 C 110.29 109.01 69.41 109.02 28.54 108.95 C 31.78 102.90 35.82 97.31 39.56 91.56 M 83.48 73.09 C 84.79 74.63 87.02 73.82 88.76 74.08 C 88.85 82.36 88.84 90.64 88.77 98.93 C 87.00 98.97 85.23 98.99 83.47 99.12 L 84.36 99.83 C 88.25 100.24 92.20 99.96 96.11 99.91 C 94.86 98.31 92.56 99.23 90.84 98.90 C 90.78 90.64 90.78 82.37 90.84 74.11 C 92.71 73.98 94.78 74.31 96.39 73.13 C 92.09 72.90 87.78 72.96 83.48 73.09 Z" />
</g>
<g id="#090a0bff">
<path fill="#090a0b" opacity="1.00" d=" M 88.23 13.05 C 88.85 12.40 89.62 11.98 90.54 11.79 C 99.64 26.45 109.45 40.68 118.88 55.14 C 130.88 73.29 142.78 91.50 154.84 109.61 C 155.72 111.19 153.14 111.78 152.01 111.89 C 110.01 111.93 68.00 111.89 25.99 111.91 C 25.66 111.45 25.01 110.53 24.69 110.06 C 25.29 108.89 25.89 107.72 26.57 106.59 C 47.15 75.43 67.78 44.29 88.23 13.05 M 39.56 91.56 C 35.82 97.31 31.78 102.90 28.54 108.95 C 69.41 109.02 110.29 109.01 151.17 108.96 C 132.73 80.38 113.89 52.05 95.38 23.51 C 93.44 20.69 91.75 17.69 89.53 15.07 C 72.96 40.63 56.15 66.02 39.56 91.56 Z" />
<path fill="#090a0b" opacity="1.00" d=" M 83.48 73.09 C 87.78 72.96 92.09 72.90 96.39 73.13 C 94.78 74.31 92.71 73.98 90.84 74.11 C 90.78 82.37 90.78 90.64 90.84 98.90 C 92.56 99.23 94.86 98.31 96.11 99.91 C 92.20 99.96 88.25 100.24 84.36 99.83 L 83.47 99.12 C 85.23 98.99 87.00 98.97 88.77 98.93 C 88.84 90.64 88.85 82.36 88.76 74.08 C 87.02 73.82 84.79 74.63 83.48 73.09 Z" />
</g>
</svg>
