<?xml version="1.0" encoding="UTF-8" ?>
<!DOCTYPE svg PUBLIC "-//W3C//DTD SVG 1.1//EN" "http://www.w3.org/Graphics/SVG/1.1/DTD/svg11.dtd">
<svg width="182pt" height="125pt" viewBox="0 0 182 125" version="1.1" xmlns="http://www.w3.org/2000/svg">
<g id="#ffffffff">
<path fill="#ffffff" opacity="0.00" d=" M 0.00 0.00 L 88.45 0.00 C 71.92 1.02 54.98 7.23 43.93 20.00 C 34.11 30.43 27.75 44.53 27.78 58.97 C 26.76 78.74 36.59 98.78 52.97 109.93 C 67.95 121.18 88.12 123.79 106.00 119.10 C 108.13 120.45 109.11 123.16 110.85 125.00 L 0.00 125.00 L 0.00 0.00 Z" />
<path fill="#ffffff" opacity="0.00" d=" M 88.45 0.00 L 182.00 0.00 L 182.00 125.00 L 112.61 125.00 C 125.38 111.53 138.25 98.14 151.04 84.69 C 150.79 84.24 150.30 83.33 150.06 82.88 C 133.14 91.63 115.69 99.33 98.76 108.07 C 99.91 110.06 101.15 111.98 102.33 113.95 C 98.04 115.30 93.47 114.98 89.08 115.82 C 78.13 115.20 66.91 112.76 57.81 106.34 C 50.31 100.79 43.76 93.85 39.30 85.62 C 30.28 68.05 31.58 45.37 43.65 29.53 C 49.73 19.86 59.83 13.46 70.24 9.25 C 79.96 6.07 90.56 4.94 100.55 7.63 C 112.95 10.03 123.96 17.45 131.79 27.23 C 133.58 30.20 137.46 28.74 140.29 29.11 C 134.91 21.21 128.20 13.96 119.81 9.22 C 110.52 3.18 99.33 0.94 88.45 0.00 Z" />
</g>
<g id="#000000ff">
<path fill="#000000" opacity="1.00" d=" M 88.45 0.00 L 88.45 0.00 C 99.33 0.94 110.52 3.18 119.81 9.22 C 128.20 13.96 134.91 21.21 140.29 29.11 C 137.46 28.74 133.58 30.20 131.79 27.23 C 123.96 17.45 112.95 10.03 100.55 7.63 C 90.56 4.94 79.96 6.07 70.24 9.25 C 59.83 13.46 49.73 19.86 43.65 29.53 C 31.58 45.37 30.28 68.05 39.30 85.62 C 43.76 93.85 50.31 100.79 57.81 106.34 C 66.91 112.76 78.13 115.20 89.08 115.82 C 93.47 114.98 98.04 115.30 102.33 113.95 C 101.15 111.98 99.91 110.06 98.76 108.07 C 115.69 99.33 133.14 91.63 150.06 82.88 C 150.30 83.33 150.79 84.24 151.04 84.69 C 138.25 98.14 125.38 111.53 112.61 125.00 L 110.85 125.00 C 109.11 123.16 108.13 120.45 106.00 119.10 C 88.12 123.79 67.95 121.18 52.97 109.93 C 36.59 98.78 26.76 78.74 27.78 58.97 C 27.75 44.53 34.11 30.43 43.93 20.00 C 54.98 7.23 71.92 1.02 88.45 0.00 Z" />
</g>
</svg>
