<?xml version="1.0" encoding="UTF-8" ?>
<!DOCTYPE svg PUBLIC "-//W3C//DTD SVG 1.1//EN" "http://www.w3.org/Graphics/SVG/1.1/DTD/svg11.dtd">
<svg width="182pt" height="125pt" viewBox="0 0 182 125" version="1.1" xmlns="http://www.w3.org/2000/svg">
<g id="#ffffffff">
<path fill="#ffffff" opacity="0.00" d=" M 0.00 0.00 L 182.00 0.00 L 182.00 74.20 C 173.67 65.20 164.87 56.61 155.98 48.15 C 155.98 52.73 156.03 57.30 155.95 61.88 C 142.31 62.20 128.66 61.28 115.02 61.91 C 102.34 62.12 89.67 61.30 77.01 61.90 C 65.35 62.10 53.71 61.47 42.06 61.75 C 28.38 62.42 14.67 61.14 1.00 61.94 C 0.99 70.28 1.01 78.61 0.99 86.95 C 9.64 87.93 18.40 87.25 27.08 87.00 C 38.01 86.78 48.92 87.87 59.86 87.24 C 73.55 86.25 87.28 88.26 100.97 87.02 C 112.70 86.71 124.39 87.80 136.12 87.30 C 142.71 86.68 149.36 87.13 155.98 87.03 C 156.01 91.47 155.87 95.90 156.03 100.33 C 164.78 91.87 173.37 83.23 182.00 74.64 L 182.00 125.00 L 0.00 125.00 L 0.00 0.00 Z" />
<path fill="#ffffff" opacity="0.00" d=" M 23.04 64.30 C 28.58 64.35 34.13 64.30 39.67 64.33 C 39.68 71.11 39.68 77.89 39.67 84.67 C 34.12 84.69 28.57 84.66 23.02 84.69 C 22.99 77.89 22.97 71.10 23.04 64.30 Z" />
<path fill="#ffffff" opacity="0.00" d=" M 61.33 64.32 C 66.87 64.30 72.41 64.36 77.95 64.29 C 78.05 71.09 77.99 77.89 77.98 84.69 C 72.43 84.67 66.88 84.69 61.33 84.67 C 61.32 77.89 61.32 71.11 61.33 64.32 Z" />
<path fill="#ffffff" opacity="0.00" d=" M 100.01 64.31 C 105.50 64.34 110.98 64.30 116.47 64.34 C 116.46 71.11 116.45 77.88 116.47 84.65 C 110.99 84.72 105.50 84.65 100.02 84.69 C 99.98 77.90 99.99 71.11 100.01 64.31 Z" />
<path fill="#ffffff" opacity="0.00" d=" M 138.16 64.32 C 144.26 64.33 150.36 64.30 156.47 64.34 C 156.64 71.16 155.69 77.86 155.97 84.70 C 150.03 84.65 144.09 84.69 138.16 84.68 C 138.14 77.89 138.14 71.11 138.16 64.32 Z" />
</g>
<g id="#000000ff">
<path fill="#000000" opacity="1.00" d=" M 155.98 48.15 C 164.87 56.61 173.67 65.20 182.00 74.20 L 182.00 74.64 C 173.37 83.23 164.78 91.87 156.03 100.33 C 155.87 95.90 156.01 91.47 155.98 87.03 C 149.36 87.13 142.71 86.68 136.12 87.30 C 124.39 87.80 112.70 86.71 100.97 87.02 C 87.28 88.26 73.55 86.25 59.86 87.24 C 48.92 87.87 38.01 86.78 27.08 87.00 C 18.40 87.25 9.64 87.93 0.99 86.95 C 1.01 78.61 0.99 70.28 1.00 61.94 C 14.67 61.14 28.38 62.42 42.06 61.75 C 53.71 61.47 65.35 62.10 77.01 61.90 C 89.67 61.30 102.34 62.12 115.02 61.91 C 128.66 61.28 142.31 62.20 155.95 61.88 C 156.03 57.30 155.98 52.73 155.98 48.15 M 23.04 64.30 C 22.97 71.10 22.99 77.89 23.02 84.69 C 28.57 84.66 34.12 84.69 39.67 84.67 C 39.68 77.89 39.68 71.11 39.67 64.33 C 34.13 64.30 28.58 64.35 23.04 64.30 M 61.33 64.32 C 61.32 71.11 61.32 77.89 61.33 84.67 C 66.88 84.69 72.43 84.67 77.98 84.69 C 77.99 77.89 78.05 71.09 77.95 64.29 C 72.41 64.36 66.87 64.30 61.33 64.32 M 100.01 64.31 C 99.99 71.11 99.98 77.90 100.02 84.69 C 105.50 84.65 110.99 84.72 116.47 84.65 C 116.45 77.88 116.46 71.11 116.47 64.34 C 110.98 64.30 105.50 64.34 100.01 64.31 M 138.16 64.32 C 138.14 71.11 138.14 77.89 138.16 84.68 C 144.09 84.69 150.03 84.65 155.97 84.70 C 155.69 77.86 156.64 71.16 156.47 64.34 C 150.36 64.30 144.26 64.33 138.16 64.32 Z" />
</g>
</svg>
