<?xml version="1.0" encoding="UTF-8" ?>
<!DOCTYPE svg PUBLIC "-//W3C//DTD SVG 1.1//EN" "http://www.w3.org/Graphics/SVG/1.1/DTD/svg11.dtd">
<svg width="221pt" height="139pt" viewBox="0 0 221 139" version="1.1" xmlns="http://www.w3.org/2000/svg">
<g id="#ffffffff">
<path fill="#ffffff" opacity="0.00" d=" M 0.00 0.00 L 221.00 0.00 L 221.00 139.00 L 54.27 139.00 C 61.79 132.25 69.63 125.88 77.26 119.25 C 78.11 118.57 79.41 117.29 80.49 118.37 C 84.09 121.21 87.35 124.49 91.07 127.18 C 95.26 122.74 98.77 117.63 102.49 112.76 C 108.64 114.88 113.74 119.26 119.88 121.39 L 120.56 120.99 C 122.32 115.32 124.10 109.64 125.50 103.87 C 134.80 106.22 143.57 110.41 153.00 112.25 C 152.95 105.99 150.94 99.95 150.75 93.70 C 159.90 95.15 168.95 97.22 178.07 98.84 C 182.74 99.58 187.32 101.26 192.10 100.82 C 185.04 92.99 176.18 87.02 168.66 79.64 C 174.40 77.28 180.83 76.42 186.09 73.02 C 182.66 68.77 178.03 65.70 174.61 61.43 C 189.14 55.67 203.78 50.18 218.36 44.55 C 218.15 44.16 217.72 43.39 217.50 43.00 C 212.05 42.40 206.51 43.20 201.08 42.19 C 190.27 42.04 179.45 42.11 168.64 41.94 C 173.12 34.73 179.41 28.72 183.36 21.18 C 182.67 21.16 181.30 21.12 180.61 21.10 C 170.20 26.38 159.76 31.62 149.05 36.26 C 149.83 30.75 149.99 25.19 150.31 19.64 C 151.58 14.03 150.23 8.09 152.12 2.61 C 151.36 1.98 150.60 1.36 149.84 0.75 C 139.34 9.99 128.46 18.82 117.65 27.71 C 112.08 22.57 106.58 17.37 100.80 12.47 C 96.08 21.39 92.96 31.07 88.81 40.27 C 76.18 35.55 64.07 29.52 51.62 24.37 C 50.89 24.25 49.45 24.01 48.73 23.89 C 48.96 25.62 49.21 27.35 49.81 29.00 C 52.25 35.96 54.38 43.02 56.76 50.00 C 49.06 51.27 41.23 50.65 33.53 51.83 C 27.52 51.90 21.54 52.29 15.60 53.21 C 18.50 56.80 22.52 59.17 26.02 62.11 C 31.10 65.84 35.81 70.08 41.11 73.51 C 39.12 75.20 36.42 75.23 33.99 75.79 C 24.84 77.62 15.71 79.57 6.58 81.49 C 5.23 81.57 3.98 83.50 5.80 84.10 C 15.71 89.27 26.05 93.59 35.92 98.83 C 30.52 103.57 24.51 107.55 18.83 111.95 C 17.83 112.60 17.54 113.83 17.00 114.81 C 22.84 116.14 28.84 115.81 34.76 116.36 C 40.40 117.51 46.25 116.46 51.85 117.83 C 51.80 124.91 52.28 131.97 53.12 139.00 L 0.00 139.00 L 0.00 0.00 Z" />
<path fill="#ffffff" opacity="0.00" d=" M 137.45 14.39 C 141.40 11.49 144.65 7.67 148.98 5.29 C 149.42 10.91 147.91 16.40 147.97 22.00 C 147.91 27.69 146.55 33.29 146.95 39.01 C 147.43 38.99 148.41 38.95 148.90 38.93 C 158.35 34.92 167.37 29.77 177.00 26.16 C 173.70 32.02 168.81 36.77 165.23 42.44 C 163.99 44.28 166.87 44.28 167.99 44.25 C 173.66 44.27 179.33 44.18 185.01 44.24 C 192.99 45.59 201.13 44.41 209.17 45.08 C 207.70 46.04 206.11 46.81 204.44 47.34 C 201.82 48.40 199.17 49.40 196.49 50.30 C 192.21 52.10 187.88 53.78 183.50 55.31 C 179.30 57.13 174.95 58.56 170.76 60.38 C 173.16 65.34 178.72 68.00 181.77 72.61 C 176.10 74.87 170.09 76.24 164.59 78.93 C 170.45 86.14 179.28 90.47 184.85 97.91 C 173.74 95.59 162.45 93.84 151.45 91.17 C 150.26 91.13 149.08 91.11 147.89 91.10 C 148.63 97.15 149.59 103.19 150.70 109.17 C 141.73 107.04 133.16 103.42 124.31 100.84 C 122.07 106.50 120.84 112.49 118.93 118.26 C 112.82 116.24 107.69 111.85 101.53 109.84 C 98.02 114.70 94.66 119.75 90.48 124.08 C 88.03 121.31 84.86 119.35 82.23 116.76 C 81.27 115.72 79.93 115.26 78.62 114.85 C 75.42 118.28 71.48 120.87 68.10 124.10 C 63.63 127.44 59.91 131.79 55.01 134.53 C 54.60 128.71 53.89 122.92 53.89 117.07 C 53.82 114.49 50.71 115.17 49.02 115.02 C 43.62 115.25 38.35 113.79 32.96 113.94 C 29.39 114.00 25.93 112.86 22.36 112.94 C 27.37 107.92 33.50 104.14 38.90 99.55 C 40.32 97.85 37.67 97.12 36.58 96.49 C 28.63 92.88 20.94 88.72 12.91 85.28 C 11.67 84.80 10.62 83.96 9.69 83.02 C 10.37 82.96 11.75 82.85 12.43 82.79 C 23.28 80.09 34.33 78.12 45.26 75.72 C 45.12 74.43 44.44 73.37 43.36 72.67 C 35.84 66.74 28.00 61.17 20.67 55.00 C 21.60 54.95 23.45 54.84 24.37 54.78 C 29.21 53.41 34.39 54.48 39.34 53.67 C 45.62 52.48 52.13 53.62 58.37 52.07 C 58.62 51.86 59.11 51.46 59.36 51.26 C 57.40 43.02 53.92 35.19 51.85 26.98 C 61.78 31.04 71.52 35.56 81.39 39.74 C 84.34 40.94 87.16 42.80 90.41 42.98 C 93.90 33.93 97.64 24.98 101.15 15.94 C 106.36 20.58 111.83 24.97 116.57 30.13 C 117.75 29.92 119.09 30.01 120.06 29.18 C 125.82 24.21 131.69 19.37 137.45 14.39 Z" />
</g>
<g id="#040404ff">
<path fill="#040404" opacity="1.00" d=" M 149.84 0.75 C 150.60 1.36 151.36 1.98 152.12 2.61 C 150.23 8.09 151.58 14.03 150.31 19.64 C 149.99 25.19 149.83 30.75 149.05 36.26 C 159.76 31.62 170.20 26.38 180.61 21.10 C 181.30 21.12 182.67 21.16 183.36 21.18 C 179.41 28.72 173.12 34.73 168.64 41.94 C 179.45 42.11 190.27 42.04 201.08 42.19 C 206.51 43.20 212.05 42.40 217.50 43.00 C 217.72 43.39 218.15 44.16 218.36 44.55 C 203.78 50.18 189.14 55.67 174.61 61.43 C 178.03 65.70 182.66 68.77 186.09 73.02 C 180.83 76.42 174.40 77.28 168.66 79.64 C 176.18 87.02 185.04 92.99 192.10 100.82 C 187.32 101.26 182.74 99.58 178.07 98.84 C 168.95 97.22 159.90 95.15 150.75 93.70 C 150.94 99.95 152.95 105.99 153.00 112.25 C 143.57 110.41 134.80 106.22 125.50 103.87 C 124.10 109.64 122.32 115.32 120.56 120.99 L 119.88 121.39 C 113.74 119.26 108.64 114.88 102.49 112.76 C 98.77 117.63 95.26 122.74 91.07 127.18 C 87.35 124.49 84.09 121.21 80.49 118.37 C 79.41 117.29 78.11 118.57 77.26 119.25 C 69.63 125.88 61.79 132.25 54.27 139.00 L 53.12 139.00 C 52.28 131.97 51.80 124.91 51.85 117.83 C 46.25 116.46 40.40 117.51 34.76 116.36 C 28.84 115.81 22.84 116.14 17.00 114.81 C 17.54 113.83 17.83 112.60 18.83 111.95 C 24.51 107.55 30.52 103.57 35.92 98.83 C 26.05 93.59 15.71 89.27 5.80 84.10 C 3.98 83.50 5.23 81.57 6.58 81.49 C 15.71 79.57 24.84 77.62 33.99 75.79 C 36.42 75.23 39.12 75.20 41.11 73.51 C 35.81 70.08 31.10 65.84 26.02 62.11 C 22.52 59.17 18.50 56.80 15.60 53.21 C 21.54 52.29 27.52 51.90 33.53 51.83 C 41.23 50.65 49.06 51.27 56.76 50.00 C 54.38 43.02 52.25 35.96 49.81 29.00 C 49.21 27.35 48.96 25.62 48.73 23.89 C 49.45 24.01 50.89 24.25 51.62 24.37 C 64.07 29.52 76.18 35.55 88.81 40.27 C 92.96 31.07 96.08 21.39 100.80 12.47 C 106.58 17.37 112.08 22.57 117.65 27.71 C 128.46 18.82 139.34 9.99 149.84 0.75 M 137.45 14.39 C 131.69 19.37 125.82 24.21 120.06 29.18 C 119.09 30.01 117.75 29.92 116.57 30.13 C 111.83 24.97 106.36 20.58 101.15 15.94 C 97.64 24.98 93.90 33.93 90.41 42.98 C 87.16 42.80 84.34 40.94 81.39 39.74 C 71.52 35.56 61.78 31.04 51.85 26.98 C 53.92 35.19 57.40 43.02 59.36 51.26 C 59.11 51.46 58.62 51.86 58.37 52.07 C 52.13 53.62 45.62 52.48 39.34 53.67 C 34.39 54.48 29.21 53.41 24.37 54.78 C 23.45 54.84 21.60 54.95 20.67 55.00 C 28.00 61.17 35.84 66.74 43.36 72.67 C 44.44 73.37 45.12 74.43 45.26 75.72 C 34.33 78.12 23.28 80.09 12.43 82.79 C 11.75 82.85 10.37 82.96 9.69 83.02 C 10.62 83.96 11.67 84.80 12.91 85.28 C 20.94 88.72 28.63 92.88 36.58 96.49 C 37.67 97.12 40.32 97.85 38.90 99.55 C 33.50 104.14 27.37 107.92 22.36 112.94 C 25.93 112.86 29.39 114.00 32.96 113.94 C 38.35 113.79 43.62 115.25 49.02 115.02 C 50.71 115.17 53.82 114.49 53.89 117.07 C 53.89 122.92 54.60 128.71 55.01 134.53 C 59.91 131.79 63.63 127.44 68.10 124.10 C 71.48 120.87 75.42 118.28 78.62 114.85 C 79.93 115.26 81.27 115.72 82.23 116.76 C 84.86 119.35 88.03 121.31 90.48 124.08 C 94.66 119.75 98.02 114.70 101.53 109.84 C 107.69 111.85 112.82 116.24 118.93 118.26 C 120.84 112.49 122.07 106.50 124.31 100.84 C 133.16 103.42 141.73 107.04 150.70 109.17 C 149.59 103.19 148.63 97.15 147.89 91.10 C 149.08 91.11 150.26 91.13 151.45 91.17 C 162.45 93.84 173.74 95.59 184.85 97.91 C 179.28 90.47 170.45 86.14 164.59 78.93 C 170.09 76.24 176.10 74.87 181.77 72.61 C 178.72 68.00 173.16 65.34 170.76 60.38 C 174.95 58.56 179.30 57.13 183.50 55.31 C 187.88 53.78 192.21 52.10 196.49 50.30 C 199.17 49.40 201.82 48.40 204.44 47.34 C 206.11 46.81 207.70 46.04 209.17 45.08 C 201.13 44.41 192.99 45.59 185.01 44.24 C 179.33 44.18 173.66 44.27 167.99 44.25 C 166.87 44.28 163.99 44.28 165.23 42.44 C 168.81 36.77 173.70 32.02 177.00 26.16 C 167.37 29.77 158.35 34.92 148.90 38.93 C 148.41 38.95 147.43 38.99 146.95 39.01 C 146.55 33.29 147.91 27.69 147.97 22.00 C 147.91 16.40 149.42 10.91 148.98 5.29 C 144.65 7.67 141.40 11.49 137.45 14.39 Z" />
</g>
</svg>
