<?xml version="1.0" encoding="UTF-8" ?>
<!DOCTYPE svg PUBLIC "-//W3C//DTD SVG 1.1//EN" "http://www.w3.org/Graphics/SVG/1.1/DTD/svg11.dtd">
<svg width="182pt" height="125pt" viewBox="0 0 182 125" version="1.1" xmlns="http://www.w3.org/2000/svg">
<g id="#ffffffff">
<path fill="#ffffff" opacity="0.00" d=" M 0.00 0.00 L 182.00 0.00 L 182.00 125.00 L 0.00 125.00 L 0.00 0.00 M 156.08 43.74 C 156.33 44.35 156.84 45.56 157.09 46.17 C 154.35 48.14 151.41 49.90 148.45 51.55 C 146.85 52.63 145.22 53.68 143.48 54.52 C 141.89 55.65 140.25 56.74 138.47 57.54 C 129.29 63.42 119.86 68.93 110.50 74.51 C 107.58 76.56 104.37 78.15 101.40 80.14 C 96.69 82.72 92.41 86.12 87.34 88.04 C 90.81 76.62 95.81 65.74 99.84 54.51 C 101.23 51.36 102.13 47.99 103.91 45.02 C 103.08 44.53 102.24 44.03 101.42 43.54 C 97.48 45.96 93.56 48.43 89.45 50.56 C 85.47 52.93 81.57 55.43 77.45 57.55 C 73.48 59.94 69.56 62.43 65.45 64.56 C 61.47 66.95 57.53 69.42 53.42 71.59 C 49.45 73.94 45.56 76.42 41.48 78.57 C 39.48 79.80 37.42 80.92 35.39 82.11 C 33.36 83.16 31.53 84.56 29.47 85.58 C 27.53 86.78 25.53 87.88 23.54 89.00 C 21.72 89.33 21.10 90.92 21.09 92.59 C 21.91 92.26 22.73 91.93 23.55 91.59 C 25.67 89.94 28.09 88.74 30.48 87.51 C 34.47 85.09 38.52 82.77 42.54 80.41 C 44.52 79.17 46.59 78.08 48.60 76.89 C 52.96 74.50 57.10 71.73 61.52 69.44 C 65.51 67.10 69.41 64.59 73.51 62.44 C 77.17 60.28 80.80 58.04 84.50 55.96 C 88.50 53.77 92.36 51.35 96.26 48.99 C 97.36 48.53 98.46 48.08 99.57 47.63 C 97.82 54.68 94.72 61.29 92.13 68.05 C 89.39 75.67 86.29 83.15 83.28 90.67 C 84.02 91.37 84.75 92.09 85.48 92.81 C 86.72 91.65 88.14 90.70 89.59 89.83 C 97.66 85.15 105.50 80.04 113.61 75.41 C 119.44 71.55 125.53 68.07 131.52 64.47 C 133.13 63.38 134.76 62.32 136.52 61.48 C 142.35 57.53 148.56 54.18 154.49 50.39 C 156.19 49.03 158.57 48.34 160.30 50.12 C 161.72 47.60 163.28 45.16 165.10 42.91 C 162.08 42.95 159.04 43.11 156.08 43.74 Z" />
</g>
<g id="#000000ff">
<path fill="#000000" opacity="1.00" d=" M 156.08 43.74 C 159.04 43.11 162.08 42.95 165.10 42.91 C 163.28 45.16 161.72 47.60 160.30 50.12 C 158.57 48.34 156.19 49.03 154.49 50.39 C 148.56 54.18 142.35 57.53 136.52 61.48 C 134.76 62.32 133.13 63.38 131.52 64.47 C 125.53 68.07 119.44 71.55 113.61 75.41 C 105.50 80.04 97.66 85.15 89.59 89.83 C 88.14 90.70 86.72 91.65 85.48 92.81 C 84.75 92.09 84.02 91.37 83.28 90.67 C 86.29 83.15 89.39 75.67 92.13 68.05 C 94.72 61.29 97.82 54.68 99.57 47.63 C 98.46 48.08 97.36 48.53 96.26 48.99 C 92.36 51.35 88.50 53.77 84.50 55.96 C 80.80 58.04 77.17 60.28 73.51 62.44 C 69.41 64.59 65.51 67.10 61.52 69.44 C 57.10 71.73 52.96 74.50 48.60 76.89 C 46.59 78.08 44.52 79.17 42.54 80.41 C 38.52 82.77 34.47 85.09 30.48 87.51 C 28.09 88.74 25.67 89.94 23.55 91.59 C 22.73 91.93 21.91 92.26 21.09 92.59 C 21.10 90.92 21.72 89.33 23.54 89.00 C 25.53 87.88 27.53 86.78 29.47 85.58 C 31.53 84.56 33.36 83.16 35.39 82.11 C 37.42 80.92 39.48 79.80 41.48 78.57 C 45.56 76.42 49.45 73.94 53.42 71.59 C 57.53 69.42 61.47 66.95 65.45 64.56 C 69.56 62.43 73.48 59.94 77.45 57.55 C 81.57 55.43 85.47 52.93 89.45 50.56 C 93.56 48.43 97.48 45.96 101.42 43.54 C 102.24 44.03 103.08 44.53 103.91 45.02 C 102.13 47.99 101.23 51.36 99.84 54.51 C 95.81 65.74 90.81 76.62 87.34 88.04 C 92.41 86.12 96.69 82.72 101.40 80.14 C 104.37 78.15 107.58 76.56 110.50 74.51 C 119.86 68.93 129.29 63.42 138.47 57.54 C 140.25 56.74 141.89 55.65 143.48 54.52 C 145.22 53.68 146.85 52.63 148.45 51.55 C 151.41 49.90 154.35 48.14 157.09 46.17 C 156.84 45.56 156.33 44.35 156.08 43.74 Z" />
</g>
</svg>
