<?xml version="1.0" encoding="UTF-8" ?>
<!DOCTYPE svg PUBLIC "-//W3C//DTD SVG 1.1//EN" "http://www.w3.org/Graphics/SVG/1.1/DTD/svg11.dtd">
<svg width="182pt" height="125pt" viewBox="0 0 182 125" version="1.1" xmlns="http://www.w3.org/2000/svg">
<g id="#ffffffff">
<path fill="#ffffff" opacity="0.00" d=" M 0.00 0.00 L 182.00 0.00 L 182.00 125.00 L 0.00 125.00 L 0.00 0.00 M 149.11 45.94 C 140.40 48.20 131.61 50.11 122.86 52.16 C 122.88 50.81 122.90 49.46 122.94 48.12 C 121.40 47.40 119.77 46.85 118.05 46.98 C 97.37 47.00 76.69 47.02 56.00 46.98 C 53.97 47.04 51.67 46.58 50.04 48.14 C 50.25 55.25 50.02 62.36 50.17 69.47 C 35.96 72.52 21.89 76.19 7.69 79.31 C 9.27 87.24 11.72 94.98 13.10 102.95 C 27.98 99.07 43.07 95.91 57.99 92.18 C 59.35 93.58 60.73 94.97 62.44 95.94 C 66.92 96.72 71.63 93.97 72.56 89.39 C 74.11 88.23 76.00 87.76 77.92 87.87 C 93.19 87.88 108.47 87.87 123.74 87.88 C 124.83 91.34 127.67 94.16 131.49 94.05 C 134.05 92.80 136.25 90.90 136.79 87.96 C 138.07 88.11 139.08 87.67 139.83 86.63 C 140.22 82.08 139.91 77.51 140.01 72.96 C 144.91 71.85 149.74 70.25 154.76 69.73 C 155.48 73.92 157.00 77.95 157.35 82.21 C 161.71 74.97 166.29 67.87 170.65 60.64 C 172.40 57.83 173.91 54.84 176.11 52.35 C 166.32 45.86 155.97 40.19 146.40 33.41 C 147.30 37.59 148.57 41.69 149.11 45.94 Z" />
<path fill="#ffffff" opacity="0.00" d=" M 149.98 39.50 C 157.96 42.96 164.77 48.66 172.44 52.75 C 170.00 58.25 166.25 63.04 163.24 68.23 C 161.74 70.48 160.72 73.17 158.40 74.73 C 157.79 72.08 157.02 69.47 156.68 66.77 C 150.94 67.60 145.46 69.71 139.68 70.32 C 137.39 67.04 134.66 64.12 132.04 61.12 C 128.98 61.13 125.92 61.12 122.87 61.14 C 122.88 58.91 122.87 56.67 122.83 54.44 C 132.67 52.46 142.36 49.82 152.17 47.71 C 151.36 44.99 150.68 42.25 149.98 39.50 Z" />
<path fill="#ffffff" opacity="0.00" d=" M 52.30 49.27 C 74.91 49.17 97.53 49.26 120.15 49.22 C 120.16 61.19 120.09 73.16 120.00 85.13 C 104.37 85.12 88.74 85.14 73.11 85.12 C 72.66 82.98 71.65 81.04 70.44 79.25 C 67.97 77.42 64.65 76.12 61.72 77.77 C 58.55 78.84 57.57 82.27 56.68 85.13 C 55.19 85.13 53.71 85.13 52.23 85.14 C 52.27 73.19 52.14 61.23 52.30 49.27 Z" />
<path fill="#ffffff" opacity="0.00" d=" M 122.87 63.22 C 125.49 63.23 128.11 63.24 130.73 63.17 C 133.30 65.69 135.38 68.65 137.75 71.35 C 137.67 75.96 138.09 80.61 137.44 85.20 C 135.86 82.42 133.73 78.88 130.06 79.00 C 126.87 79.36 125.15 82.22 123.72 84.74 C 123.36 84.87 122.62 85.13 122.26 85.26 C 122.42 79.23 121.67 73.12 122.84 67.17 C 122.89 65.85 122.90 64.54 122.87 63.22 Z" />
<path fill="#ffffff" opacity="0.00" d=" M 10.72 81.03 C 23.84 77.92 36.92 74.60 50.12 71.85 C 50.19 76.76 50.02 81.67 50.16 86.57 C 51.65 88.95 54.80 87.53 57.10 87.86 C 57.30 89.36 56.73 90.24 55.39 90.51 C 41.90 93.64 28.42 96.86 14.94 100.02 C 13.60 93.68 11.51 87.47 10.72 81.03 Z" />
</g>
<g id="#000000ff">
<path fill="#000000" opacity="1.00" d=" M 149.11 45.94 C 148.57 41.69 147.30 37.59 146.40 33.41 C 155.97 40.19 166.32 45.86 176.11 52.35 C 173.91 54.84 172.40 57.83 170.65 60.64 C 166.29 67.87 161.71 74.97 157.35 82.21 C 157.00 77.95 155.48 73.92 154.76 69.73 C 149.74 70.25 144.91 71.85 140.01 72.96 C 139.91 77.51 140.22 82.08 139.83 86.63 C 139.08 87.67 138.07 88.11 136.79 87.96 C 136.25 90.90 134.05 92.80 131.49 94.05 C 127.67 94.16 124.83 91.34 123.74 87.88 C 108.47 87.87 93.19 87.88 77.92 87.87 C 76.00 87.76 74.11 88.23 72.56 89.39 C 71.63 93.97 66.92 96.72 62.44 95.94 C 60.73 94.97 59.35 93.58 57.99 92.18 C 43.07 95.91 27.98 99.07 13.10 102.95 C 11.72 94.98 9.27 87.24 7.69 79.31 C 21.89 76.19 35.96 72.52 50.17 69.47 C 50.02 62.36 50.25 55.25 50.04 48.14 C 51.67 46.58 53.97 47.04 56.00 46.98 C 76.69 47.02 97.37 47.00 118.05 46.98 C 119.77 46.85 121.40 47.40 122.94 48.12 C 122.90 49.46 122.88 50.81 122.86 52.16 C 131.61 50.11 140.40 48.20 149.11 45.94 M 149.98 39.50 C 150.68 42.25 151.36 44.99 152.17 47.71 C 142.36 49.82 132.67 52.46 122.83 54.44 C 122.87 56.67 122.88 58.91 122.87 61.14 C 125.92 61.12 128.98 61.13 132.04 61.12 C 134.66 64.12 137.39 67.04 139.68 70.32 C 145.46 69.71 150.94 67.60 156.68 66.77 C 157.02 69.47 157.79 72.08 158.40 74.73 C 160.72 73.17 161.74 70.48 163.24 68.23 C 166.25 63.04 170.00 58.25 172.44 52.75 C 164.77 48.66 157.96 42.96 149.98 39.50 M 52.30 49.27 C 52.14 61.23 52.27 73.19 52.23 85.14 C 53.71 85.13 55.19 85.13 56.68 85.13 C 57.57 82.27 58.55 78.84 61.72 77.77 C 64.65 76.12 67.97 77.42 70.44 79.25 C 71.65 81.04 72.66 82.98 73.11 85.12 C 88.74 85.14 104.37 85.12 120.00 85.13 C 120.09 73.16 120.16 61.19 120.15 49.22 C 97.53 49.26 74.91 49.17 52.30 49.27 M 122.87 63.22 C 122.90 64.54 122.89 65.85 122.84 67.17 C 121.67 73.12 122.42 79.23 122.26 85.26 C 122.62 85.13 123.36 84.87 123.72 84.74 C 125.15 82.22 126.87 79.36 130.06 79.00 C 133.73 78.88 135.86 82.42 137.44 85.20 C 138.09 80.61 137.67 75.96 137.75 71.35 C 135.38 68.65 133.30 65.69 130.73 63.17 C 128.11 63.24 125.49 63.23 122.87 63.22 M 10.72 81.03 C 11.51 87.47 13.60 93.68 14.94 100.02 C 28.42 96.86 41.90 93.64 55.39 90.51 C 56.73 90.24 57.30 89.36 57.10 87.86 C 54.80 87.53 51.65 88.95 50.16 86.57 C 50.02 81.67 50.19 76.76 50.12 71.85 C 36.92 74.60 23.84 77.92 10.72 81.03 Z" />
</g>
</svg>
