<?xml version="1.0" encoding="UTF-8" ?>
<!DOCTYPE svg PUBLIC "-//W3C//DTD SVG 1.1//EN" "http://www.w3.org/Graphics/SVG/1.1/DTD/svg11.dtd">
<svg width="182pt" height="125pt" viewBox="0 0 182 125" version="1.1" xmlns="http://www.w3.org/2000/svg">
<g id="#ffffffff">
<path fill="#ffffff" opacity="0.00" d=" M 0.00 0.00 L 182.00 0.00 L 182.00 125.00 L 0.00 125.00 L 0.00 0.00 M 64.36 13.27 C 49.01 25.05 33.21 36.27 18.06 48.30 C 18.39 55.52 17.53 62.80 18.76 69.95 C 18.76 83.41 18.78 96.87 18.74 110.33 C 19.07 110.72 19.72 111.50 20.04 111.89 C 67.95 111.94 115.86 111.77 163.76 111.97 C 165.47 110.44 164.89 108.03 165.02 106.01 C 164.88 75.25 165.23 44.48 164.84 13.73 C 161.83 14.35 159.65 16.62 157.13 18.19 C 143.65 27.21 130.52 36.78 116.87 45.53 C 116.88 35.67 116.91 25.82 116.87 15.97 C 117.36 14.40 115.43 13.20 114.24 14.26 C 98.72 24.74 83.68 35.96 68.03 46.23 C 67.87 34.72 68.22 23.21 67.84 11.71 C 66.63 12.12 65.34 12.41 64.36 13.27 Z" />
<path fill="#ffffff" opacity="0.00" d=" M 62.54 17.52 C 63.59 16.75 64.71 16.10 65.87 15.52 C 66.00 27.08 65.78 38.64 65.99 50.20 C 67.79 50.02 69.09 48.70 70.52 47.74 C 85.02 37.66 99.42 27.44 113.96 17.42 C 114.10 27.62 113.87 37.82 114.07 48.02 C 114.63 49.61 116.44 49.21 117.48 48.38 C 131.21 38.79 145.03 29.34 158.77 19.76 C 160.03 18.80 161.45 18.09 162.88 17.40 C 162.96 37.66 162.86 57.91 162.92 78.16 C 163.40 80.41 163.90 82.66 163.70 84.99 C 163.42 90.96 164.30 97.02 162.94 102.89 C 162.82 104.91 162.89 106.93 162.88 108.95 C 115.59 109.03 68.31 108.99 21.02 108.97 C 21.04 105.63 21.29 102.24 20.12 99.05 C 20.05 92.89 20.07 86.72 20.14 80.55 C 21.63 79.47 20.94 77.50 21.12 75.98 C 20.96 67.05 21.03 58.12 20.99 49.18 C 34.75 38.52 48.72 28.11 62.54 17.52 Z" />
</g>
<g id="#030303ff">
<path fill="#030303" opacity="1.00" d=" M 64.36 13.27 C 65.34 12.41 66.63 12.12 67.84 11.71 C 68.22 23.21 67.87 34.72 68.03 46.23 C 83.68 35.96 98.72 24.74 114.24 14.26 C 115.43 13.20 117.36 14.40 116.87 15.97 C 116.91 25.82 116.88 35.67 116.87 45.53 C 130.52 36.78 143.65 27.21 157.13 18.19 C 159.65 16.62 161.83 14.35 164.84 13.73 C 165.23 44.48 164.88 75.25 165.02 106.01 C 164.89 108.03 165.47 110.44 163.76 111.97 C 115.86 111.77 67.95 111.94 20.04 111.89 C 19.72 111.50 19.07 110.72 18.74 110.33 C 18.78 96.87 18.76 83.41 18.76 69.95 C 17.53 62.80 18.39 55.52 18.06 48.30 C 33.21 36.27 49.01 25.05 64.36 13.27 M 62.54 17.52 C 48.72 28.11 34.75 38.52 20.99 49.18 C 21.03 58.12 20.96 67.05 21.12 75.98 C 20.94 77.50 21.63 79.47 20.14 80.55 C 20.07 86.72 20.05 92.89 20.12 99.05 C 21.29 102.24 21.04 105.63 21.02 108.97 C 68.31 108.99 115.59 109.03 162.88 108.95 C 162.89 106.93 162.82 104.91 162.94 102.89 C 164.30 97.02 163.42 90.96 163.70 84.99 C 163.90 82.66 163.40 80.41 162.92 78.16 C 162.86 57.91 162.96 37.66 162.88 17.40 C 161.45 18.09 160.03 18.80 158.77 19.76 C 145.03 29.34 131.21 38.79 117.48 48.38 C 116.44 49.21 114.63 49.61 114.07 48.02 C 113.87 37.82 114.10 27.62 113.96 17.42 C 99.42 27.44 85.02 37.66 70.52 47.74 C 69.09 48.70 67.79 50.02 65.99 50.20 C 65.78 38.64 66.00 27.08 65.87 15.52 C 64.71 16.10 63.59 16.75 62.54 17.52 Z" />
</g>
</svg>
