<?xml version="1.0" encoding="UTF-8" ?>
<!DOCTYPE svg PUBLIC "-//W3C//DTD SVG 1.1//EN" "http://www.w3.org/Graphics/SVG/1.1/DTD/svg11.dtd">
<svg width="182pt" height="125pt" viewBox="0 0 182 125" version="1.1" xmlns="http://www.w3.org/2000/svg">
<g id="#ffffffff">
<path fill="#ffffff" opacity="0.00" d=" M 0.00 0.00 L 182.00 0.00 L 182.00 125.00 L 0.00 125.00 L 0.00 0.00 M 18.87 4.03 C 18.20 5.26 17.57 6.56 17.73 8.01 C 17.81 43.01 17.75 78.02 17.76 113.02 C 17.84 115.70 17.18 118.67 18.91 120.98 C 66.60 120.83 114.30 120.86 162.00 120.97 C 162.69 119.76 163.23 118.45 163.09 117.03 C 163.05 80.68 163.05 44.32 163.09 7.97 C 163.23 6.54 162.69 5.22 161.95 4.02 C 114.26 4.16 66.56 4.15 18.87 4.03 Z" />
<path fill="#ffffff" opacity="0.00" d=" M 20.00 7.00 C 66.98 7.00 113.95 7.00 160.93 7.00 C 160.88 15.73 160.99 24.46 160.86 33.19 C 113.92 33.20 66.98 33.30 20.04 33.16 C 19.97 24.44 20.03 15.72 20.00 7.00 Z" />
<path fill="#ffffff" opacity="0.00" d=" M 20.02 33.74 C 66.96 33.84 113.91 33.71 160.85 33.80 C 160.83 42.49 160.85 51.18 160.84 59.87 C 113.91 60.13 66.98 59.94 20.05 59.97 C 19.97 51.23 20.03 42.48 20.02 33.74 Z" />
<path fill="#ffffff" opacity="0.00" d=" M 20.01 61.00 C 66.98 61.01 113.96 60.98 160.93 61.02 C 160.89 70.33 160.94 79.64 160.90 88.95 C 113.94 89.03 66.98 88.99 20.02 88.98 C 19.99 79.65 20.02 70.33 20.01 61.00 Z" />
<path fill="#ffffff" opacity="0.00" d=" M 20.02 90.02 C 66.98 90.02 113.95 89.95 160.91 90.06 C 160.92 99.37 160.91 108.69 160.92 118.00 C 113.95 118.00 66.98 118.00 20.01 118.00 C 20.02 108.67 19.99 99.35 20.02 90.02 Z" />
</g>
<g id="#060606ff">
<path fill="#060606" opacity="1.00" d=" M 18.87 4.03 C 66.56 4.15 114.26 4.16 161.95 4.02 C 162.69 5.22 163.23 6.54 163.09 7.97 C 163.05 44.32 163.05 80.68 163.09 117.03 C 163.23 118.45 162.69 119.76 162.00 120.97 C 114.30 120.86 66.60 120.83 18.91 120.98 C 17.18 118.67 17.84 115.70 17.76 113.02 C 17.75 78.02 17.81 43.01 17.73 8.01 C 17.57 6.56 18.20 5.26 18.87 4.03 M 20.00 7.00 C 20.03 15.72 19.97 24.44 20.04 33.16 C 66.98 33.30 113.92 33.20 160.86 33.19 C 160.99 24.46 160.88 15.73 160.93 7.00 C 113.95 7.00 66.98 7.00 20.00 7.00 M 20.02 33.74 C 20.03 42.48 19.97 51.23 20.05 59.97 C 66.98 59.94 113.91 60.13 160.84 59.87 C 160.85 51.18 160.83 42.49 160.85 33.80 C 113.91 33.71 66.96 33.84 20.02 33.74 M 20.01 61.00 C 20.02 70.33 19.99 79.65 20.02 88.98 C 66.98 88.99 113.94 89.03 160.90 88.95 C 160.94 79.64 160.89 70.33 160.93 61.02 C 113.96 60.98 66.98 61.01 20.01 61.00 M 20.02 90.02 C 19.99 99.35 20.02 108.67 20.01 118.00 C 66.98 118.00 113.95 118.00 160.92 118.00 C 160.91 108.69 160.92 99.37 160.91 90.06 C 113.95 89.95 66.98 90.02 20.02 90.02 Z" />
</g>
</svg>
