<?xml version="1.0" encoding="UTF-8" ?>
<!DOCTYPE svg PUBLIC "-//W3C//DTD SVG 1.1//EN" "http://www.w3.org/Graphics/SVG/1.1/DTD/svg11.dtd">
<svg width="182pt" height="125pt" viewBox="0 0 182 125" version="1.1" xmlns="http://www.w3.org/2000/svg">
<g id="#ffffffff">
<path fill="#ffffff" opacity="0.00" d=" M 0.00 0.00 L 182.00 0.00 L 182.00 125.00 L 0.00 125.00 L 0.00 0.00 M 21.24 19.16 C 19.66 19.73 20.11 21.66 19.96 22.94 C 20.03 50.64 19.99 78.33 19.98 106.02 C 19.99 107.34 20.08 108.65 20.24 109.95 C 24.45 110.69 28.75 110.29 33.00 110.36 C 73.00 110.35 113.00 110.35 153.00 110.36 C 156.93 110.30 160.89 110.63 164.81 110.12 C 166.20 109.22 165.93 107.45 166.03 106.05 C 165.95 78.03 166.03 50.02 166.00 22.00 C 166.36 20.18 164.82 18.64 163.00 19.00 C 119.34 18.98 75.67 19.01 32.00 18.99 C 28.42 19.03 24.81 18.74 21.24 19.16 Z" />
<path fill="#ffffff" opacity="0.00" d=" M 22.34 21.43 C 69.14 21.23 115.96 21.34 162.76 21.37 C 163.09 23.90 163.02 26.46 163.03 29.01 C 162.87 55.29 163.20 81.59 162.87 107.87 C 118.26 108.19 73.62 107.86 29.00 108.03 C 26.74 108.03 24.48 108.07 22.23 107.81 C 21.89 81.55 22.24 55.27 22.07 29.00 C 22.07 26.48 22.00 23.94 22.34 21.43 Z" />
</g>
<g id="#000000ff">
<path fill="#000000" opacity="1.00" d=" M 21.24 19.16 C 24.81 18.74 28.42 19.03 32.00 18.99 C 75.67 19.01 119.34 18.98 163.00 19.00 C 164.82 18.64 166.36 20.18 166.00 22.00 C 166.03 50.02 165.95 78.03 166.03 106.05 C 165.93 107.45 166.20 109.22 164.81 110.12 C 160.89 110.63 156.93 110.30 153.00 110.36 C 113.00 110.35 73.00 110.35 33.00 110.36 C 28.75 110.29 24.45 110.69 20.24 109.95 C 20.08 108.65 19.99 107.34 19.98 106.02 C 19.99 78.33 20.03 50.64 19.96 22.94 C 20.11 21.66 19.66 19.73 21.24 19.16 M 22.34 21.43 C 22.00 23.94 22.07 26.48 22.07 29.00 C 22.24 55.27 21.89 81.55 22.23 107.81 C 24.48 108.07 26.74 108.03 29.00 108.03 C 73.62 107.86 118.26 108.19 162.87 107.87 C 163.20 81.59 162.87 55.29 163.03 29.01 C 163.02 26.46 163.09 23.90 162.76 21.37 C 115.96 21.34 69.14 21.23 22.34 21.43 Z" />
</g>
</svg>
