<?xml version="1.0" encoding="UTF-8" ?>
<!DOCTYPE svg PUBLIC "-//W3C//DTD SVG 1.1//EN" "http://www.w3.org/Graphics/SVG/1.1/DTD/svg11.dtd">
<svg width="182pt" height="125pt" viewBox="0 0 182 125" version="1.1" xmlns="http://www.w3.org/2000/svg">
<g id="#ffffffff">
<path fill="#ffffff" opacity="0.00" d=" M 0.00 0.00 L 182.00 0.00 L 182.00 125.00 L 0.00 125.00 L 0.00 0.00 M 43.08 19.97 C 44.41 31.25 45.96 42.49 47.25 53.77 C 47.60 56.85 48.38 59.85 49.26 62.81 C 60.17 63.11 71.09 62.60 81.99 63.01 C 82.22 75.66 82.22 88.33 81.99 100.99 C 71.02 101.40 60.04 100.89 49.07 101.19 C 49.08 102.73 49.08 104.27 49.07 105.81 C 74.02 105.93 98.98 105.93 123.93 105.81 C 123.92 104.27 123.92 102.73 123.93 101.19 C 111.29 100.89 98.65 101.39 86.01 100.99 C 85.78 88.33 85.78 75.67 86.01 63.01 C 98.61 62.62 111.22 63.08 123.82 62.83 C 125.35 58.22 125.79 53.36 126.57 48.59 C 127.97 39.03 129.55 29.50 130.89 19.92 C 130.25 19.98 128.97 20.08 128.34 20.14 C 125.99 33.04 124.48 46.10 121.87 58.96 C 98.28 59.26 74.67 59.18 51.08 59.00 C 48.62 46.18 48.01 33.06 45.76 20.20 C 45.09 20.14 43.75 20.03 43.08 19.97 Z" />
</g>
<g id="#010101ff">
<path fill="#010101" opacity="1.00" d=" M 43.08 19.97 C 43.75 20.03 45.09 20.14 45.76 20.20 C 48.01 33.06 48.62 46.18 51.08 59.00 C 74.67 59.18 98.28 59.26 121.87 58.96 C 124.48 46.10 125.99 33.04 128.34 20.14 C 128.97 20.08 130.25 19.98 130.89 19.92 C 129.55 29.50 127.97 39.03 126.57 48.59 C 125.79 53.36 125.35 58.22 123.82 62.83 C 111.22 63.08 98.61 62.62 86.01 63.01 C 85.78 75.67 85.78 88.33 86.01 100.99 C 98.65 101.39 111.29 100.89 123.93 101.19 C 123.92 102.73 123.92 104.27 123.93 105.81 C 98.98 105.93 74.02 105.93 49.07 105.81 C 49.08 104.27 49.08 102.73 49.07 101.19 C 60.04 100.89 71.02 101.40 81.99 100.99 C 82.22 88.33 82.22 75.66 81.99 63.01 C 71.09 62.60 60.17 63.11 49.26 62.81 C 48.38 59.85 47.60 56.85 47.25 53.77 C 45.96 42.49 44.41 31.25 43.08 19.97 Z" />
</g>
</svg>
