<?xml version="1.0" encoding="UTF-8" ?>
<!DOCTYPE svg PUBLIC "-//W3C//DTD SVG 1.1//EN" "http://www.w3.org/Graphics/SVG/1.1/DTD/svg11.dtd">
<svg width="182pt" height="125pt" viewBox="0 0 182 125" version="1.1" xmlns="http://www.w3.org/2000/svg">
<g id="#ffffffff">
<path fill="#ffffff" opacity="0.00" d=" M 0.00 0.00 L 182.00 0.00 L 182.00 125.00 L 0.00 125.00 L 0.00 0.00 M 31.30 33.19 C 29.54 34.15 30.12 36.31 29.95 37.96 C 30.06 56.97 29.94 75.99 30.00 95.00 C 29.65 96.81 31.17 98.37 33.00 98.00 C 71.35 98.03 109.70 97.96 148.06 98.04 C 149.56 98.03 152.16 98.13 152.00 95.92 C 152.20 86.27 152.10 76.60 152.05 66.95 C 152.26 64.76 150.48 63.29 149.14 61.86 C 140.05 52.96 131.12 43.90 122.14 34.90 C 120.87 33.39 119.00 32.81 117.08 32.98 C 92.05 33.01 67.03 33.00 42.00 32.99 C 38.44 33.03 34.85 32.75 31.30 33.19 Z" />
<path fill="#ffffff" opacity="0.00" d=" M 32.98 36.08 C 59.99 35.86 87.01 36.13 114.03 35.95 C 116.51 35.99 119.45 35.64 121.19 37.85 C 129.50 46.19 137.77 54.58 146.20 62.81 C 147.54 64.25 149.30 65.74 149.10 67.93 C 149.17 76.96 149.24 86.00 149.02 95.02 C 110.35 95.20 71.66 95.21 32.98 95.02 C 32.79 75.38 32.79 55.72 32.98 36.08 Z" />
</g>
<g id="#000000ff">
<path fill="#000000" opacity="1.00" d=" M 31.30 33.19 C 34.85 32.75 38.44 33.03 42.00 32.99 C 67.03 33.00 92.05 33.01 117.08 32.98 C 119.00 32.81 120.87 33.39 122.14 34.90 C 131.12 43.90 140.05 52.96 149.14 61.86 C 150.48 63.29 152.26 64.76 152.05 66.95 C 152.10 76.60 152.20 86.27 152.00 95.92 C 152.16 98.13 149.56 98.03 148.06 98.04 C 109.70 97.96 71.35 98.03 33.00 98.00 C 31.17 98.37 29.65 96.81 30.00 95.00 C 29.94 75.99 30.06 56.97 29.95 37.96 C 30.12 36.31 29.54 34.15 31.30 33.19 M 32.98 36.08 C 32.79 55.72 32.79 75.38 32.98 95.02 C 71.66 95.21 110.35 95.20 149.02 95.02 C 149.24 86.00 149.17 76.96 149.10 67.93 C 149.30 65.74 147.54 64.25 146.20 62.81 C 137.77 54.58 129.50 46.19 121.19 37.85 C 119.45 35.64 116.51 35.99 114.03 35.95 C 87.01 36.13 59.99 35.86 32.98 36.08 Z" />
</g>
</svg>
