<?xml version="1.0" encoding="UTF-8" ?>
<!DOCTYPE svg PUBLIC "-//W3C//DTD SVG 1.1//EN" "http://www.w3.org/Graphics/SVG/1.1/DTD/svg11.dtd">
<svg width="182pt" height="125pt" viewBox="0 0 182 125" version="1.1" xmlns="http://www.w3.org/2000/svg">
<g id="#ffffffff">
<path fill="#000000" opacity="0.00" d=" M 0.00 0.00 L 182.00 0.00 L 182.00 125.00 L 0.00 125.00 L 0.00 0.00 M 60.00 4.67 C 60.00 5.34 60.00 6.66 60.00 7.32 C 76.59 7.34 93.17 7.30 109.76 7.34 C 110.01 15.77 109.98 24.22 109.77 32.65 C 93.18 32.70 76.59 32.66 60.00 32.68 C 60.00 33.34 60.00 34.66 60.00 35.32 C 76.59 35.34 93.18 35.30 109.77 35.34 C 110.05 43.54 109.87 51.75 109.87 59.95 C 93.25 60.04 76.63 59.96 60.00 59.99 C 60.00 60.75 60.00 62.25 60.00 63.01 C 76.62 63.04 93.25 62.95 109.87 63.05 C 109.86 71.92 110.07 80.80 109.76 89.66 C 93.17 89.69 76.59 89.67 60.00 89.68 C 60.00 90.28 60.00 91.49 60.00 92.09 C 76.62 92.14 93.24 91.99 109.86 92.17 C 109.93 101.39 109.95 110.62 109.85 119.84 C 93.23 120.00 76.62 119.86 60.00 119.91 C 60.00 120.68 60.00 122.23 60.00 123.00 C 76.95 123.04 93.90 122.92 110.85 123.06 C 111.81 121.89 112.63 120.62 112.34 119.04 C 112.30 82.36 112.33 45.68 112.33 9.01 C 112.30 7.64 112.22 6.27 112.10 4.90 C 94.75 4.38 77.37 4.82 60.00 4.67 Z" />
</g>
<g id="#000000ff">
<path fill="#000000" opacity="1.00" d=" M 60.00 4.67 C 77.37 4.82 94.75 4.38 112.10 4.90 C 112.22 6.27 112.30 7.64 112.33 9.01 C 112.33 45.68 112.30 82.36 112.34 119.04 C 112.63 120.62 111.81 121.89 110.85 123.06 C 93.90 122.92 76.95 123.04 60.00 123.00 C 60.00 122.23 60.00 120.68 60.00 119.91 C 76.62 119.86 93.23 120.00 109.85 119.84 C 109.95 110.62 109.93 101.39 109.86 92.17 C 93.24 91.99 76.62 92.14 60.00 92.09 C 60.00 91.49 60.00 90.28 60.00 89.68 C 76.59 89.67 93.17 89.69 109.76 89.66 C 110.07 80.80 109.86 71.92 109.87 63.05 C 93.25 62.95 76.62 63.04 60.00 63.01 C 60.00 62.25 60.00 60.75 60.00 59.99 C 76.63 59.96 93.25 60.04 109.87 59.95 C 109.87 51.75 110.05 43.54 109.77 35.34 C 93.18 35.30 76.59 35.34 60.00 35.32 C 60.00 34.66 60.00 33.34 60.00 32.68 C 76.59 32.66 93.18 32.70 109.77 32.65 C 109.98 24.22 110.01 15.77 109.76 7.34 C 93.17 7.30 76.59 7.34 60.00 7.32 C 60.00 6.66 60.00 5.34 60.00 4.67 Z" />
</g>
</svg>
